<svg width="26" height="26" viewBox="0 0 26 26" fill="none" xmlns="http://www.w3.org/2000/svg">
<path d="M4.33301 17H10.833C10.9214 17 11.0068 17.0351 11.0693 17.0977C11.1317 17.1601 11.1669 17.2448 11.167 17.333V21.667C11.1669 21.7552 11.1317 21.8399 11.0693 21.9023C11.0068 21.9649 10.9214 22 10.833 22H4.33301C4.24471 21.9999 4.16009 21.9648 4.09766 21.9023C4.03522 21.8399 4.00009 21.7553 4 21.667V17.333C4.00009 17.2447 4.03522 17.1601 4.09766 17.0977C4.16009 17.0352 4.24472 17.0001 4.33301 17ZM15.167 13.75H21.667C21.7553 13.7501 21.8399 13.7852 21.9023 13.8477C21.9648 13.9101 21.9999 13.9947 22 14.083V21.667C21.9999 21.7553 21.9648 21.8399 21.9023 21.9023C21.8399 21.9648 21.7553 21.9999 21.667 22H15.167C15.0786 22 14.9932 21.9649 14.9307 21.9023C14.8683 21.8399 14.8331 21.7552 14.833 21.667V14.083C14.8331 13.9948 14.8683 13.9101 14.9307 13.8477C14.9932 13.7851 15.0786 13.75 15.167 13.75ZM4.33301 4H10.833C10.9214 4 11.0068 4.03515 11.0693 4.09766C11.1317 4.16008 11.1669 4.2448 11.167 4.33301V13C11.167 13.0883 11.1316 13.1729 11.0693 13.2354C11.0068 13.2979 10.9214 13.333 10.833 13.333H4.33301C4.24472 13.3329 4.16009 13.2978 4.09766 13.2354C4.03525 13.1729 4 13.0883 4 13V4.33301C4.00009 4.24472 4.03522 4.16009 4.09766 4.09766C4.16009 4.03522 4.24472 4.00009 4.33301 4ZM15.167 4H21.667C21.7553 4.00009 21.8399 4.03522 21.9023 4.09766C21.9648 4.16009 21.9999 4.24471 22 4.33301V9.75C22 9.83833 21.9648 9.92286 21.9023 9.98535C21.8399 10.0478 21.7553 10.0829 21.667 10.083H15.167C15.0786 10.083 14.9932 10.0479 14.9307 9.98535C14.8684 9.92287 14.833 9.83825 14.833 9.75V4.33301C14.8331 4.2448 14.8683 4.16008 14.9307 4.09766C14.9932 4.03514 15.0786 4 15.167 4Z" stroke="white" stroke-width="1.5"/>
</svg>
