<svg width="38" height="38" viewBox="0 0 38 38" fill="none" xmlns="http://www.w3.org/2000/svg">
<path d="M19.9092 16.0908C20.9636 17.1452 20.9636 18.8548 19.9092 19.9092C18.8548 20.9636 17.1452 20.9636 16.0908 19.9092C15.0364 18.8548 15.0364 17.1452 16.0908 16.0908C17.1452 15.0364 18.8548 15.0364 19.9092 16.0908" stroke="#2C2C2C" stroke-width="1.5" stroke-linecap="round" stroke-linejoin="round"/>
<path fill-rule="evenodd" clip-rule="evenodd" d="M11.25 18C11.25 18.297 11.277 18.594 11.313 18.882L9.72499 20.124C9.37299 20.4 9.27699 20.893 9.50099 21.28L10.913 23.723C11.136 24.11 11.61 24.273 12.025 24.107L13.447 23.536C13.728 23.423 14.041 23.468 14.293 23.635C14.513 23.781 14.741 23.915 14.977 24.035C15.247 24.172 15.443 24.417 15.486 24.717L15.703 26.23C15.766 26.672 16.145 27 16.591 27H19.408C19.854 27 20.233 26.672 20.296 26.23L20.513 24.718C20.556 24.418 20.754 24.171 21.025 24.035C21.26 23.917 21.487 23.784 21.706 23.639C21.96 23.471 22.274 23.423 22.556 23.537L23.975 24.107C24.389 24.273 24.863 24.11 25.087 23.723L26.499 21.28C26.723 20.893 26.627 20.399 26.275 20.124L24.687 18.882C24.723 18.594 24.75 18.297 24.75 18C24.75 17.703 24.723 17.406 24.687 17.118L26.275 15.876C26.627 15.6 26.723 15.107 26.499 14.72L25.087 12.277C24.864 11.89 24.39 11.727 23.975 11.893L22.556 12.463C22.274 12.576 21.96 12.529 21.706 12.361C21.487 12.216 21.26 12.083 21.025 11.965C20.754 11.829 20.556 11.582 20.513 11.282L20.297 9.77C20.234 9.328 19.855 9 19.409 9H16.592C16.146 9 15.767 9.328 15.704 9.77L15.486 11.284C15.443 11.583 15.246 11.829 14.977 11.966C14.741 12.086 14.513 12.221 14.293 12.366C14.04 12.532 13.727 12.577 13.446 12.464L12.025 11.893C11.61 11.727 11.136 11.89 10.913 12.277L9.50099 14.72C9.27699 15.107 9.37299 15.601 9.72499 15.876L11.313 17.118C11.277 17.406 11.25 17.703 11.25 18V18Z" stroke="#2C2C2C" stroke-width="1.5" stroke-linecap="round" stroke-linejoin="round"/>
</svg>
