<svg width="32" height="32" viewBox="0 0 32 32" fill="none" xmlns="http://www.w3.org/2000/svg">
<rect width="32" height="32" rx="16" fill="#BFDC1A"/>
<path d="M18.7007 16.4107C18.7447 16.2756 18.8308 16.1581 18.9463 16.0753C19.0618 15.9926 19.2008 15.9489 19.3429 15.9507C19.485 15.9525 19.6228 15.9996 19.7362 16.0852C19.8496 16.1709 19.9327 16.2905 19.9733 16.4267L20.4647 17.3947C20.5125 17.4888 20.582 17.5702 20.6674 17.6322C20.7528 17.6942 20.8517 17.735 20.956 17.7513L22.0453 17.922C22.1856 17.9225 22.3221 17.9673 22.4355 18.05C22.5488 18.1326 22.6332 18.2489 22.6767 18.3823C22.7201 18.5156 22.7203 18.6593 22.6774 18.7929C22.6344 18.9264 22.5504 19.043 22.4373 19.126L21.656 19.9047C21.5812 19.9791 21.5252 20.0703 21.4925 20.1707C21.4598 20.2711 21.4514 20.3777 21.468 20.482L21.6407 21.5573C21.6882 21.6921 21.6911 21.8386 21.649 21.9752C21.607 22.1117 21.5221 22.2312 21.4071 22.3159C21.292 22.4006 21.1527 22.446 21.0098 22.4456C20.8669 22.4451 20.7279 22.3988 20.6133 22.3133L19.6367 21.8133C19.5426 21.7651 19.4384 21.74 19.3327 21.74C19.227 21.74 19.1228 21.7651 19.0287 21.8133L18.052 22.3133C17.9375 22.3981 17.7988 22.4439 17.6563 22.444C17.5138 22.4442 17.3751 22.3987 17.2603 22.3142C17.1456 22.2298 17.0609 22.1107 17.0188 21.9747C16.9766 21.8386 16.9791 21.6925 17.026 21.558L17.198 20.4827C17.2146 20.3784 17.2062 20.2717 17.1736 20.1713C17.1409 20.071 17.0848 19.9798 17.01 19.9053L16.2393 19.1367C16.1224 19.0557 16.0345 18.9394 15.9884 18.8049C15.9423 18.6704 15.9403 18.5247 15.9829 18.389C16.0255 18.2533 16.1104 18.1348 16.2251 18.0508C16.3399 17.9668 16.4785 17.9216 16.6207 17.922L17.7093 17.7513C17.8136 17.735 17.9125 17.6942 17.998 17.6322C18.0834 17.5702 18.1529 17.4888 18.2007 17.3947L18.7007 16.4107Z" stroke="white" stroke-width="2" stroke-linecap="round" stroke-linejoin="round"/>
<path d="M13.3333 18H12.6667C11.9594 18 11.2811 18.281 10.781 18.781C10.281 19.2811 10 19.9594 10 20.6667V22" stroke="white" stroke-width="2" stroke-linecap="round" stroke-linejoin="round"/>
<path d="M14.6667 15.3333C16.1394 15.3333 17.3333 14.1394 17.3333 12.6667C17.3333 11.1939 16.1394 10 14.6667 10C13.1939 10 12 11.1939 12 12.6667C12 14.1394 13.1939 15.3333 14.6667 15.3333Z" stroke="white" stroke-width="2" stroke-linecap="round" stroke-linejoin="round"/>
</svg>
