<svg width="32" height="32" viewBox="0 0 32 32" fill="none" xmlns="http://www.w3.org/2000/svg">
<rect width="32" height="32" rx="16" fill="#1D70EA"/>
<path d="M19.5066 9.5H12.4934C11.7002 9.50226 10.9401 9.81836 10.3792 10.3792C9.81836 10.9401 9.50226 11.7002 9.5 12.4934V19.5066C9.50226 20.2998 9.81836 21.0599 10.3792 21.6208C10.9401 22.1816 11.7002 22.4977 12.4934 22.5H19.5066C20.2998 22.4977 21.0599 22.1816 21.6208 21.6208C22.1816 21.0599 22.4977 20.2998 22.5 19.5066V12.4934C22.4977 11.7002 22.1816 10.9401 21.6208 10.3792C21.0599 9.81836 20.2998 9.50226 19.5066 9.5ZM18.6693 16.5602H16.6962C16.681 16.5601 16.6659 16.563 16.6519 16.5688C16.6378 16.5745 16.625 16.583 16.6143 16.5938C16.6035 16.6045 16.595 16.6173 16.5893 16.6313C16.5835 16.6454 16.5806 16.6605 16.5807 16.6757V18.6513C16.5807 18.8053 16.5195 18.953 16.4106 19.0619C16.3017 19.1709 16.154 19.232 16 19.232C15.846 19.232 15.6983 19.1709 15.5894 19.0619C15.4805 18.953 15.4193 18.8053 15.4193 18.6513V16.6757C15.4194 16.6605 15.4165 16.6454 15.4107 16.6313C15.405 16.6173 15.3965 16.6045 15.3857 16.5938C15.375 16.583 15.3622 16.5745 15.3481 16.5688C15.3341 16.563 15.319 16.5601 15.3038 16.5602H13.3307C13.2545 16.5602 13.1789 16.5452 13.1085 16.516C13.038 16.4868 12.974 16.444 12.9201 16.3901C12.8662 16.3362 12.8234 16.2722 12.7942 16.2017C12.765 16.1313 12.75 16.0557 12.75 15.9795C12.75 15.9032 12.765 15.8277 12.7942 15.7572C12.8234 15.6868 12.8662 15.6228 12.9201 15.5688C12.974 15.5149 13.038 15.4721 13.1085 15.443C13.1789 15.4138 13.2545 15.3988 13.3307 15.3988H15.3038C15.319 15.3989 15.3341 15.396 15.3481 15.3902C15.3622 15.3844 15.375 15.3759 15.3857 15.3652C15.3965 15.3544 15.405 15.3417 15.4107 15.3276C15.4165 15.3135 15.4194 15.2985 15.4193 15.2833V13.3102C15.4193 13.1562 15.4805 13.0085 15.5894 12.8996C15.6983 12.7907 15.846 12.7295 16 12.7295C16.154 12.7295 16.3017 12.7907 16.4106 12.8996C16.5195 13.0085 16.5807 13.1562 16.5807 13.3102V15.2833C16.5803 15.2987 16.5829 15.314 16.5885 15.3284C16.5941 15.3428 16.6026 15.3558 16.6134 15.3669C16.6241 15.3779 16.637 15.3866 16.6513 15.3925C16.6655 15.3984 16.6808 15.4014 16.6962 15.4013H18.6693C18.8233 15.4013 18.971 15.4625 19.0799 15.5714C19.1888 15.6803 19.25 15.828 19.25 15.982C19.25 16.1361 19.1888 16.2838 19.0799 16.3927C18.971 16.5016 18.8233 16.5628 18.6693 16.5628V16.5602Z" fill="white"/>
</svg>
