<svg width="147" height="32" viewBox="0 0 147 32" fill="none" xmlns="http://www.w3.org/2000/svg">
<rect width="32" height="32" rx="16" fill="#314DA0"/>
<g clip-path="url(#clip0_3384_256)">
<path d="M14.7333 9.45469C15.57 9.29277 16.43 9.29277 17.2667 9.45469" stroke="white" stroke-width="2" stroke-linecap="round" stroke-linejoin="round"/>
<path d="M17.2667 22.5453C16.43 22.7073 15.57 22.7073 14.7333 22.5453" stroke="white" stroke-width="2" stroke-linecap="round" stroke-linejoin="round"/>
<path d="M19.7393 10.4807C20.447 10.9601 21.0558 11.5712 21.5327 12.2807" stroke="white" stroke-width="2" stroke-linecap="round" stroke-linejoin="round"/>
<path d="M9.45469 17.2667C9.29277 16.43 9.29277 15.57 9.45469 14.7333" stroke="white" stroke-width="2" stroke-linecap="round" stroke-linejoin="round"/>
<path d="M21.5194 19.7393C21.0399 20.447 20.4288 21.0558 19.7194 21.5327" stroke="white" stroke-width="2" stroke-linecap="round" stroke-linejoin="round"/>
<path d="M22.5453 14.7333C22.7073 15.57 22.7073 16.43 22.5453 17.2667" stroke="white" stroke-width="2" stroke-linecap="round" stroke-linejoin="round"/>
<path d="M10.4807 12.2607C10.9601 11.553 11.5712 10.9442 12.2807 10.4673" stroke="white" stroke-width="2" stroke-linecap="round" stroke-linejoin="round"/>
<path d="M12.2607 21.5194C11.553 21.0399 10.9442 20.4288 10.4673 19.7194" stroke="white" stroke-width="2" stroke-linecap="round" stroke-linejoin="round"/>
</g>
<path d="M40.9325 20.5V11.0455H44.478C45.2043 11.0455 45.8137 11.1716 46.3061 11.424C46.8016 11.6764 47.1755 12.0303 47.4279 12.4858C47.6834 12.9382 47.8111 13.466 47.8111 14.0692C47.8111 14.6755 47.6818 15.2018 47.4233 15.6481C47.1679 16.0913 46.7908 16.4344 46.2923 16.6776C45.7937 16.9176 45.1812 17.0376 44.4549 17.0376H41.9297V15.6158H44.2241C44.6488 15.6158 44.9966 15.5573 45.2674 15.4403C45.5382 15.3203 45.7383 15.1464 45.8675 14.9187C45.9999 14.6879 46.0661 14.4047 46.0661 14.0692C46.0661 13.7338 45.9999 13.4476 45.8675 13.2106C45.7352 12.9705 45.5336 12.7889 45.2628 12.6658C44.992 12.5397 44.6426 12.4766 44.2148 12.4766H42.6452V20.5H40.9325ZM45.8168 16.2159L48.1573 20.5H46.2461L43.9471 16.2159H45.8168ZM53.8333 17.5178V13.4091H55.5044V20.5H53.8841V19.2397H53.8102C53.6502 19.6367 53.387 19.9614 53.0208 20.2138C52.6576 20.4661 52.2098 20.5923 51.6774 20.5923C51.2127 20.5923 50.8018 20.4892 50.4448 20.283C50.0908 20.0737 49.8139 19.7706 49.6138 19.3736C49.4138 18.9735 49.3137 18.4903 49.3137 17.924V13.4091H50.9849V17.6655C50.9849 18.1148 51.108 18.4718 51.3542 18.7365C51.6004 19.0012 51.9236 19.1335 52.3237 19.1335C52.5699 19.1335 52.8084 19.0735 53.0392 18.9535C53.2701 18.8335 53.4593 18.6549 53.6071 18.418C53.7579 18.1779 53.8333 17.8778 53.8333 17.5178ZM58.8941 16.3452V20.5H57.2229V13.4091H58.8202V14.614H58.9033C59.0664 14.217 59.3265 13.9015 59.6835 13.6676C60.0436 13.4337 60.4883 13.3168 61.0177 13.3168C61.507 13.3168 61.9333 13.4214 62.2964 13.6307C62.6627 13.84 62.9458 14.1431 63.1459 14.5401C63.349 14.9371 63.449 15.4188 63.4459 15.9851V20.5H61.7748V16.2436C61.7748 15.7696 61.6517 15.3988 61.4055 15.131C61.1623 14.8633 60.8253 14.7294 60.3944 14.7294C60.1021 14.7294 59.842 14.794 59.6143 14.9233C59.3896 15.0495 59.2126 15.2326 59.0834 15.4727C58.9572 15.7127 58.8941 16.0036 58.8941 16.3452ZM66.816 16.3452V20.5H65.1448V13.4091H66.7421V14.614H66.8252C66.9883 14.217 67.2484 13.9015 67.6054 13.6676C67.9655 13.4337 68.4102 13.3168 68.9395 13.3168C69.4289 13.3168 69.8551 13.4214 70.2183 13.6307C70.5845 13.84 70.8677 14.1431 71.0677 14.5401C71.2709 14.9371 71.3709 15.4188 71.3678 15.9851V20.5H69.6966V16.2436C69.6966 15.7696 69.5735 15.3988 69.3273 15.131C69.0842 14.8633 68.7472 14.7294 68.3163 14.7294C68.0239 14.7294 67.7639 14.794 67.5361 14.9233C67.3115 15.0495 67.1345 15.2326 67.0052 15.4727C66.8791 15.7127 66.816 16.0036 66.816 16.3452ZM73.0667 20.5V13.4091H74.7378V20.5H73.0667ZM73.9069 12.4027C73.6422 12.4027 73.4144 12.315 73.2236 12.1396C73.0328 11.9611 72.9374 11.7472 72.9374 11.4979C72.9374 11.2455 73.0328 11.0316 73.2236 10.8562C73.4144 10.6777 73.6422 10.5884 73.9069 10.5884C74.1746 10.5884 74.4024 10.6777 74.5901 10.8562C74.7809 11.0316 74.8763 11.2455 74.8763 11.4979C74.8763 11.7472 74.7809 11.9611 74.5901 12.1396C74.4024 12.315 74.1746 12.4027 73.9069 12.4027ZM78.1275 16.3452V20.5H76.4563V13.4091H78.0536V14.614H78.1367C78.2998 14.217 78.5599 13.9015 78.9169 13.6676C79.277 13.4337 79.7217 13.3168 80.2511 13.3168C80.7404 13.3168 81.1667 13.4214 81.5298 13.6307C81.8961 13.84 82.1792 14.1431 82.3793 14.5401C82.5824 14.9371 82.6824 15.4188 82.6793 15.9851V20.5H81.0082V16.2436C81.0082 15.7696 80.8851 15.3988 80.6388 15.131C80.3957 14.8633 80.0587 14.7294 79.6278 14.7294C79.3355 14.7294 79.0754 14.794 78.8477 14.9233C78.623 15.0495 78.446 15.2326 78.3168 15.4727C78.1906 15.7127 78.1275 16.0036 78.1275 16.3452ZM87.462 23.3068C86.8619 23.3068 86.3464 23.2253 85.9155 23.0621C85.4846 22.9021 85.1384 22.6867 84.8768 22.4158C84.6152 22.145 84.4336 21.8449 84.332 21.5156L85.837 21.1509C85.9047 21.2894 86.0032 21.4264 86.1325 21.5618C86.2617 21.7003 86.4356 21.8142 86.6541 21.9034C86.8757 21.9957 87.1542 22.0419 87.4897 22.0419C87.9637 22.0419 88.3561 21.9265 88.6669 21.6957C88.9777 21.4679 89.1332 21.0924 89.1332 20.5692V19.2259H89.0501C88.9639 19.3982 88.8377 19.5752 88.6715 19.7567C88.5084 19.9383 88.2914 20.0907 88.0206 20.2138C87.7528 20.3369 87.4158 20.3984 87.0096 20.3984C86.4648 20.3984 85.9709 20.2707 85.5277 20.0153C85.0876 19.7567 84.7367 19.372 84.4751 18.8612C84.2166 18.3472 84.0874 17.704 84.0874 16.9315C84.0874 16.1528 84.2166 15.4957 84.4751 14.9602C84.7367 14.4216 85.0891 14.0138 85.5323 13.7369C85.9755 13.4568 86.4695 13.3168 87.0142 13.3168C87.4297 13.3168 87.7713 13.3875 88.0391 13.5291C88.3099 13.6676 88.5253 13.8353 88.6854 14.0323C88.8454 14.2262 88.967 14.4093 89.0501 14.5817H89.1424V13.4091H90.7905V20.6154C90.7905 21.2217 90.6458 21.7234 90.3565 22.1204C90.0672 22.5174 89.6718 22.8144 89.1701 23.0114C88.6684 23.2083 88.0991 23.3068 87.462 23.3068ZM87.4759 19.0874C87.8298 19.0874 88.1314 19.0012 88.3807 18.8288C88.63 18.6565 88.8192 18.4087 88.9485 18.0856C89.0778 17.7624 89.1424 17.3746 89.1424 16.9222C89.1424 16.476 89.0778 16.0851 88.9485 15.7496C88.8223 15.4142 88.6346 15.1541 88.3853 14.9695C88.1391 14.7817 87.8359 14.6879 87.4759 14.6879C87.1035 14.6879 86.7926 14.7848 86.5433 14.9787C86.294 15.1726 86.1063 15.4388 85.9801 15.7773C85.8539 16.1128 85.7908 16.4944 85.7908 16.9222C85.7908 17.3562 85.8539 17.7363 85.9801 18.0625C86.1094 18.3857 86.2987 18.638 86.5479 18.8196C86.8003 18.9981 87.1096 19.0874 87.4759 19.0874ZM95.7278 23.1591V13.4091H97.3713V14.5817H97.4682C97.5544 14.4093 97.676 14.2262 97.8329 14.0323C97.9899 13.8353 98.2022 13.6676 98.47 13.5291C98.7377 13.3875 99.0794 13.3168 99.4949 13.3168C100.043 13.3168 100.537 13.4568 100.977 13.7369C101.42 14.0138 101.771 14.4247 102.029 14.9695C102.291 15.5111 102.422 16.1759 102.422 16.9638C102.422 17.7424 102.294 18.4041 102.039 18.9489C101.783 19.4936 101.435 19.9091 100.995 20.1953C100.555 20.4815 100.057 20.6246 99.4995 20.6246C99.0932 20.6246 98.7562 20.5569 98.4885 20.4215C98.2207 20.2861 98.0053 20.123 97.8422 19.9322C97.6821 19.7383 97.5575 19.5552 97.4682 19.3828H97.399V23.1591H95.7278ZM97.3667 16.9545C97.3667 17.4131 97.4313 17.8147 97.5605 18.1594C97.6929 18.5041 97.8822 18.7734 98.1284 18.9673C98.3777 19.1581 98.6793 19.2536 99.0332 19.2536C99.4025 19.2536 99.7118 19.1551 99.9611 18.9581C100.21 18.758 100.398 18.4857 100.524 18.141C100.654 17.7932 100.718 17.3977 100.718 16.9545C100.718 16.5144 100.655 16.1236 100.529 15.782C100.403 15.4403 100.215 15.1726 99.9657 14.9787C99.7164 14.7848 99.4056 14.6879 99.0332 14.6879C98.6762 14.6879 98.373 14.7817 98.1238 14.9695C97.8745 15.1572 97.6852 15.4203 97.5559 15.7589C97.4297 16.0974 97.3667 16.496 97.3667 16.9545ZM103.853 20.5V13.4091H105.473V14.5909H105.547C105.676 14.1816 105.898 13.8661 106.212 13.6445C106.529 13.4199 106.89 13.3075 107.297 13.3075C107.389 13.3075 107.492 13.3121 107.606 13.3214C107.723 13.3275 107.82 13.3383 107.897 13.3537V14.891C107.826 14.8664 107.714 14.8448 107.56 14.8263C107.409 14.8048 107.263 14.794 107.121 14.794C106.817 14.794 106.543 14.8602 106.3 14.9925C106.059 15.1218 105.87 15.3018 105.732 15.5327C105.593 15.7635 105.524 16.0297 105.524 16.3313V20.5H103.853ZM111.808 20.6385C111.116 20.6385 110.516 20.4862 110.008 20.1815C109.5 19.8768 109.106 19.4505 108.826 18.9027C108.549 18.3549 108.41 17.7147 108.41 16.9822C108.41 16.2498 108.549 15.6081 108.826 15.0572C109.106 14.5063 109.5 14.0785 110.008 13.7738C110.516 13.4691 111.116 13.3168 111.808 13.3168C112.501 13.3168 113.101 13.4691 113.609 13.7738C114.116 14.0785 114.509 14.5063 114.786 15.0572C115.066 15.6081 115.206 16.2498 115.206 16.9822C115.206 17.7147 115.066 18.3549 114.786 18.9027C114.509 19.4505 114.116 19.8768 113.609 20.1815C113.101 20.4862 112.501 20.6385 111.808 20.6385ZM111.817 19.2997C112.193 19.2997 112.507 19.1966 112.759 18.9904C113.012 18.7811 113.199 18.5011 113.322 18.1502C113.449 17.7994 113.512 17.4085 113.512 16.9776C113.512 16.5437 113.449 16.1513 113.322 15.8004C113.199 15.4465 113.012 15.1649 112.759 14.9556C112.507 14.7463 112.193 14.6417 111.817 14.6417C111.433 14.6417 111.113 14.7463 110.857 14.9556C110.605 15.1649 110.416 15.4465 110.289 15.8004C110.166 16.1513 110.105 16.5437 110.105 16.9776C110.105 17.4085 110.166 17.7994 110.289 18.1502C110.416 18.5011 110.605 18.7811 110.857 18.9904C111.113 19.1966 111.433 19.2997 111.817 19.2997ZM116.624 13.4091H118.295V20.9062C118.295 21.4171 118.199 21.8388 118.005 22.1712C117.811 22.5036 117.531 22.7513 117.164 22.9144C116.798 23.0775 116.353 23.1591 115.83 23.1591C115.769 23.1591 115.712 23.1576 115.659 23.1545C115.607 23.1545 115.55 23.1529 115.489 23.1499V21.788C115.535 21.7911 115.576 21.7926 115.613 21.7926C115.65 21.7957 115.689 21.7972 115.729 21.7972C116.049 21.7972 116.278 21.7188 116.417 21.5618C116.555 21.4079 116.624 21.1817 116.624 20.8832V13.4091ZM117.455 12.4027C117.188 12.4027 116.958 12.315 116.767 12.1396C116.58 11.9611 116.486 11.7472 116.486 11.4979C116.486 11.2455 116.58 11.0316 116.767 10.8562C116.958 10.6777 117.188 10.5884 117.455 10.5884C117.72 10.5884 117.946 10.6777 118.134 10.8562C118.325 11.0316 118.42 11.2455 118.42 11.4979C118.42 11.7472 118.325 11.9611 118.134 12.1396C117.946 12.315 117.72 12.4027 117.455 12.4027ZM123.153 20.6385C122.442 20.6385 121.828 20.4908 121.311 20.1953C120.797 19.8968 120.402 19.4751 120.125 18.9304C119.848 18.3826 119.709 17.7378 119.709 16.9961C119.709 16.2667 119.848 15.6265 120.125 15.0756C120.405 14.5217 120.796 14.0908 121.297 13.783C121.799 13.4722 122.388 13.3168 123.065 13.3168C123.502 13.3168 123.915 13.3875 124.303 13.5291C124.694 13.6676 125.038 13.883 125.337 14.1754C125.638 14.4678 125.875 14.8402 126.048 15.2926C126.22 15.742 126.306 16.2775 126.306 16.8991V17.4116H120.494V16.2852H124.704C124.701 15.9651 124.632 15.6804 124.497 15.4311C124.361 15.1787 124.172 14.9802 123.929 14.8356C123.689 14.6909 123.409 14.6186 123.089 14.6186C122.747 14.6186 122.447 14.7017 122.188 14.8679C121.93 15.031 121.728 15.2464 121.584 15.5142C121.442 15.7789 121.37 16.0697 121.367 16.3867V17.37C121.367 17.7824 121.442 18.1364 121.593 18.4318C121.744 18.7242 121.954 18.9489 122.225 19.1058C122.496 19.2597 122.813 19.3366 123.176 19.3366C123.419 19.3366 123.639 19.3028 123.836 19.2351C124.033 19.1643 124.204 19.0612 124.349 18.9258C124.493 18.7904 124.603 18.6226 124.677 18.4226L126.237 18.598C126.138 19.0104 125.951 19.3705 125.674 19.6783C125.4 19.983 125.049 20.2199 124.621 20.3892C124.193 20.5554 123.704 20.6385 123.153 20.6385ZM130.813 20.6385C130.105 20.6385 129.497 20.4831 128.99 20.1722C128.485 19.8614 128.095 19.4321 127.822 18.8842C127.551 18.3333 127.415 17.6993 127.415 16.9822C127.415 16.2621 127.554 15.6265 127.831 15.0756C128.108 14.5217 128.499 14.0908 129.003 13.783C129.511 13.4722 130.111 13.3168 130.804 13.3168C131.379 13.3168 131.889 13.4229 132.332 13.6353C132.778 13.8446 133.134 14.1416 133.398 14.5263C133.663 14.9079 133.814 15.3542 133.851 15.8651H132.253C132.189 15.5234 132.035 15.2388 131.792 15.011C131.552 14.7802 131.23 14.6648 130.827 14.6648C130.485 14.6648 130.185 14.7571 129.927 14.9418C129.668 15.1233 129.467 15.3849 129.322 15.7266C129.18 16.0682 129.11 16.4775 129.11 16.9545C129.11 17.4377 129.18 17.8532 129.322 18.201C129.463 18.5457 129.662 18.8119 129.917 18.9996C130.176 19.1843 130.479 19.2766 130.827 19.2766C131.073 19.2766 131.293 19.2305 131.487 19.1381C131.684 19.0427 131.849 18.9058 131.981 18.7273C132.113 18.5488 132.204 18.3318 132.253 18.0763H133.851C133.811 18.578 133.663 19.0227 133.407 19.4105C133.152 19.7952 132.804 20.0968 132.364 20.3153C131.924 20.5308 131.407 20.6385 130.813 20.6385ZM138.764 13.4091V14.7017H134.687V13.4091H138.764ZM135.694 11.7102H137.365V18.3672C137.365 18.5919 137.399 18.7642 137.467 18.8842C137.537 19.0012 137.63 19.0812 137.744 19.1243C137.857 19.1674 137.984 19.1889 138.122 19.1889C138.227 19.1889 138.322 19.1812 138.408 19.1658C138.498 19.1504 138.565 19.1366 138.611 19.1243L138.893 20.4308C138.804 20.4615 138.676 20.4954 138.51 20.5323C138.347 20.5692 138.147 20.5908 137.91 20.5969C137.491 20.6093 137.114 20.5462 136.779 20.4077C136.443 20.2661 136.177 20.0476 135.98 19.7521C135.786 19.4567 135.691 19.0874 135.694 18.6442V11.7102ZM145.664 15.2834L144.141 15.4496C144.098 15.2957 144.022 15.151 143.915 15.0156C143.81 14.8802 143.668 14.771 143.49 14.6879C143.311 14.6048 143.093 14.5632 142.834 14.5632C142.487 14.5632 142.194 14.6386 141.957 14.7894C141.723 14.9402 141.608 15.1357 141.611 15.3757C141.608 15.5819 141.683 15.7496 141.837 15.8789C141.994 16.0082 142.253 16.1143 142.613 16.1974L143.822 16.456C144.493 16.6006 144.992 16.8299 145.318 17.1438C145.647 17.4577 145.814 17.8686 145.817 18.3764C145.814 18.8227 145.683 19.2166 145.424 19.5582C145.169 19.8968 144.813 20.1615 144.358 20.3523C143.902 20.5431 143.379 20.6385 142.788 20.6385C141.92 20.6385 141.222 20.4569 140.692 20.0938C140.163 19.7275 139.847 19.2182 139.746 18.5657L141.376 18.4087C141.449 18.7288 141.606 18.9704 141.846 19.1335C142.086 19.2966 142.399 19.3782 142.784 19.3782C143.181 19.3782 143.499 19.2966 143.739 19.1335C143.982 18.9704 144.104 18.7688 144.104 18.5288C144.104 18.3256 144.025 18.1579 143.868 18.0256C143.715 17.8932 143.474 17.7917 143.148 17.7209L141.939 17.467C141.259 17.3254 140.755 17.0869 140.429 16.7514C140.103 16.4129 139.941 15.9851 139.944 15.468C139.941 15.031 140.06 14.6525 140.3 14.3324C140.543 14.0092 140.88 13.7599 141.311 13.5845C141.745 13.406 142.245 13.3168 142.811 13.3168C143.642 13.3168 144.296 13.4937 144.773 13.8477C145.253 14.2016 145.55 14.6802 145.664 15.2834Z" fill="#131415"/>
<defs>
<clipPath id="clip0_3384_256">
<rect width="16" height="16" fill="white" transform="translate(8 8)"/>
</clipPath>
</defs>
</svg>
